<?xml version="1.0" encoding="utf-8"?>
<!-- Generator: Adobe Illustrator 22.1.0, SVG Export Plug-In . SVG Version: 6.00 Build 0)  -->
<svg version="1.1" id="Capa_1" xmlns="http://www.w3.org/2000/svg" xmlns:xlink="http://www.w3.org/1999/xlink" x="0px" y="0px"
	 viewBox="0 0 508.2 508.2" style="enable-background:new 0 0 508.2 508.2;" xml:space="preserve">
<style type="text/css">
	.st0{fill:#00005C;}
	.st1{fill:#BA1818;}
	.st2{fill:#F3AE00;}
</style>
<path class="st0" d="M290.7,19.4v126.9h127.7C413.1,45.5,321.3,23.8,290.7,19.4z"/>
<rect x="135.3" y="219.4" class="st1" width="82.3" height="36.6"/>
<polygon class="st2" points="235.8,489.9 254.1,508.2 272.4,489.9 272.4,219.4 235.8,219.4 "/>
<rect x="290.7" y="219.4" class="st1" width="82.3" height="36.6"/>
<path class="st2" d="M281.5,164.6c-2.4,0-4.8-1-6.5-2.7s-2.7-4-2.7-6.5V0h-36.6v155.4c0,2.4-1,4.8-2.7,6.5c-1.7,1.7-4,2.7-6.5,2.7
	H71.3v36.6H437v-36.6H281.5z"/>
<path class="st0" d="M217.5,19.4C186.9,23.9,95.1,45.8,89.8,146.3h127.7V19.4z"/>
<path class="st0" d="M391.3,256c0,10.1-8.2,18.3-18.3,18.3h-82.3v203.8l128-72V219.4h-27.4V256z M324.6,417.9
	c-0.9,0.8-1.9,1.5-3,1.9c-1.1,0.5-2.3,0.8-3.5,0.7c-2.4,0-4.8-0.9-6.5-2.7s-2.7-4.1-2.7-6.5c0-2.4,1-4.7,2.7-6.5
	c0.9-0.8,1.9-1.5,3-1.9c3.4-1.4,7.3-0.7,10,1.9c1.7,1.8,2.6,4.1,2.7,6.5C327.3,413.8,326.3,416.2,324.6,417.9z M324.6,381.3
	L324.6,381.3c-0.9,0.8-1.9,1.5-3,1.9c-1.1,0.5-2.3,0.8-3.5,0.7c-2.4,0-4.8-0.9-6.5-2.7s-2.7-4.1-2.7-6.5c0-2.4,1-4.7,2.7-6.5
	c0.9-0.8,1.9-1.5,3-1.9c3.4-1.4,7.3-0.7,10,1.9c1.7,1.8,2.6,4.1,2.7,6.5C327.3,377.3,326.3,379.6,324.6,381.3z M324.6,344.8
	L324.6,344.8c-0.9,0.8-1.9,1.5-3,1.9c-1.1,0.5-2.3,0.8-3.5,0.7c-2.4,0-4.8-0.9-6.5-2.7s-2.7-4.1-2.7-6.5c0-2.4,1-4.7,2.7-6.5
	c0.9-0.8,1.9-1.5,3-1.9c3.4-1.4,7.3-0.7,10,1.9c1.7,1.8,2.6,4.1,2.7,6.5C327.3,340.7,326.3,343,324.6,344.8z M324.6,308.2
	L324.6,308.2c-0.9,0.8-1.9,1.5-3,1.9c-1.1,0.5-2.3,0.8-3.5,0.7c-2.4,0-4.8-0.9-6.5-2.7s-2.7-4.1-2.7-6.5c0-2.4,1-4.7,2.7-6.5
	c0.9-0.8,1.9-1.5,3-1.9c3.4-1.4,7.3-0.7,10,1.9c1.7,1.8,2.6,4.1,2.7,6.5C327.3,304.1,326.3,306.5,324.6,308.2z M361.2,417.9
	L361.2,417.9c-0.9,0.8-1.9,1.5-3,1.9c-1.1,0.5-2.3,0.8-3.5,0.7c-2.4,0-4.8-0.9-6.5-2.7s-2.7-4.1-2.7-6.5c0-2.4,1-4.7,2.7-6.5
	c0.9-0.8,1.9-1.5,3-1.9c3.4-1.4,7.3-0.7,10,1.9c1.7,1.8,2.6,4.1,2.7,6.5C363.8,413.8,362.9,416.2,361.2,417.9z M361.2,381.3
	L361.2,381.3c-0.9,0.8-1.9,1.5-3,1.9c-1.1,0.5-2.3,0.8-3.5,0.7c-2.4,0-4.8-0.9-6.5-2.7s-2.7-4.1-2.7-6.5c0-2.4,1-4.7,2.7-6.5
	c0.9-0.8,1.9-1.5,3-1.9c3.4-1.4,7.3-0.7,10,1.9c1.7,1.8,2.6,4.1,2.7,6.5C363.8,377.3,362.9,379.6,361.2,381.3z M361.2,344.8
	L361.2,344.8c-0.9,0.8-1.9,1.5-3,1.9c-1.1,0.5-2.3,0.8-3.5,0.7c-2.4,0-4.8-0.9-6.5-2.7s-2.7-4.1-2.7-6.5c0-2.4,1-4.7,2.7-6.5
	c0.9-0.8,1.9-1.5,3-1.9c3.4-1.4,7.3-0.7,10,1.9c1.7,1.8,2.6,4.1,2.7,6.5C363.8,340.7,362.9,343,361.2,344.8z M361.2,308.2
	L361.2,308.2c-0.9,0.8-1.9,1.5-3,1.9c-1.1,0.5-2.3,0.8-3.5,0.7c-2.4,0-4.8-0.9-6.5-2.7s-2.7-4.1-2.7-6.5c0-2.4,1-4.7,2.7-6.5
	c0.9-0.8,1.9-1.5,3-1.9c3.4-1.4,7.3-0.7,10,1.9c1.7,1.8,2.6,4.1,2.7,6.5C363.8,304.1,362.9,306.5,361.2,308.2z M397.7,381.3
	L397.7,381.3c-0.9,0.8-1.9,1.5-3,1.9c-1.1,0.5-2.3,0.8-3.5,0.7c-2.4,0-4.8-0.9-6.5-2.7s-2.7-4.1-2.7-6.5c0-2.4,1-4.7,2.7-6.5
	c0.9-0.8,1.9-1.5,3-1.9c3.4-1.4,7.3-0.7,10,1.9c1.7,1.8,2.6,4.1,2.7,6.5C400.4,377.3,399.5,379.6,397.7,381.3z M397.7,344.8
	L397.7,344.8c-0.9,0.8-1.9,1.5-3,1.9c-1.1,0.5-2.3,0.8-3.5,0.7c-2.4,0-4.8-0.9-6.5-2.7s-2.7-4.1-2.7-6.5c0-2.4,1-4.7,2.7-6.5
	c0.9-0.8,1.9-1.5,3-1.9c3.4-1.4,7.3-0.7,10,1.9c1.7,1.8,2.6,4.1,2.7,6.5C400.4,340.7,399.5,343,397.7,344.8z M397.7,295.2
	c1.7,1.8,2.6,4.1,2.7,6.5c0,2.4-0.9,4.8-2.7,6.5c-0.9,0.8-1.9,1.5-3,1.9c-1.1,0.5-2.3,0.8-3.5,0.7c-2.4,0-4.8-0.9-6.5-2.7
	s-2.7-4.1-2.7-6.5c0-2.4,1-4.7,2.7-6.5c0.9-0.8,1.9-1.5,3-1.9C391.2,291.9,395.1,292.6,397.7,295.2z"/>
<path class="st0" d="M117,256v-36.6H89.5v186.7l128,72V274.3h-82.3C125.2,274.3,117,266.1,117,256z M123.5,381.3
	c-1.7,1.7-4.1,2.7-6.5,2.7c-1.2,0-2.4-0.2-3.5-0.7c-1.1-0.4-2.1-1.1-3-1.9c-1.7-1.7-2.7-4.1-2.7-6.5c0-2.4,1-4.7,2.7-6.5
	c2.6-2.6,6.6-3.4,10-1.9c1.1,0.4,2.1,1.1,3,1.9c1.7,1.8,2.6,4.1,2.7,6.5C126.1,377.3,125.2,379.6,123.5,381.3z M123.5,344.8
	L123.5,344.8c-1.7,1.7-4.1,2.7-6.5,2.7c-1.2,0-2.4-0.2-3.5-0.7c-1.1-0.4-2.1-1.1-3-1.9c-1.7-1.7-2.7-4.1-2.7-6.5
	c0-2.4,1-4.7,2.7-6.5c2.6-2.6,6.6-3.4,10-1.9c1.1,0.4,2.1,1.1,3,1.9c1.7,1.8,2.6,4.1,2.7,6.5C126.1,340.7,125.2,343,123.5,344.8z
	 M123.5,308.2L123.5,308.2c-1.7,1.7-4.1,2.7-6.5,2.7c-1.2,0-2.4-0.2-3.5-0.7c-1.1-0.4-2.1-1.1-3-1.9c-1.7-1.7-2.7-4.1-2.7-6.5
	c0-2.4,1-4.7,2.7-6.5c2.6-2.6,6.6-3.4,10-1.9c1.1,0.4,2.1,1.1,3,1.9c1.7,1.8,2.6,4.1,2.7,6.5C126.1,304.1,125.2,306.5,123.5,308.2z
	 M183.6,295.2c2.6-2.6,6.6-3.4,10-1.9c1.1,0.4,2.1,1.1,3,1.9c1.7,1.8,2.6,4.1,2.7,6.5c0,2.4-0.9,4.8-2.7,6.5
	c-1.7,1.7-4.1,2.7-6.5,2.7c-1.2,0-2.4-0.2-3.5-0.7c-1.1-0.4-2.1-1.1-3-1.9c-1.7-1.7-2.7-4.1-2.7-6.5
	C181,299.3,181.9,297,183.6,295.2z M183.6,331.8L183.6,331.8c2.6-2.6,6.6-3.4,10-1.9c1.1,0.4,2.1,1.1,3,1.9c1.7,1.8,2.6,4.1,2.7,6.5
	c0,2.4-0.9,4.8-2.7,6.5c-1.7,1.7-4.1,2.7-6.5,2.7c-1.2,0-2.4-0.2-3.5-0.7c-1.1-0.4-2.1-1.1-3-1.9c-1.7-1.7-2.7-4.1-2.7-6.5
	C181,335.9,181.9,333.5,183.6,331.8z M183.6,368.3L183.6,368.3c2.6-2.6,6.6-3.4,10-1.9c1.1,0.4,2.1,1.1,3,1.9
	c1.7,1.8,2.6,4.1,2.7,6.5c0,2.4-0.9,4.8-2.7,6.5c-1.7,1.7-4.1,2.7-6.5,2.7c-1.2,0-2.4-0.2-3.5-0.7c-1.1-0.4-2.1-1.1-3-1.9
	c-1.7-1.7-2.7-4.1-2.7-6.5C181,372.4,181.9,370.1,183.6,368.3z M183.6,404.9L183.6,404.9c2.6-2.6,6.6-3.4,10-1.9
	c1.1,0.4,2.1,1.1,3,1.9c1.7,1.8,2.6,4.1,2.7,6.5c0,2.4-0.9,4.8-2.7,6.5c-1.7,1.7-4.1,2.7-6.5,2.7c-1.2,0-2.4-0.2-3.5-0.7
	c-1.1-0.4-2.1-1.1-3-1.9c-1.7-1.7-2.7-4.1-2.7-6.5C181,409,181.9,406.7,183.6,404.9z M147,295.2c2.6-2.6,6.6-3.4,10-1.9
	c1.1,0.4,2.1,1.1,3,1.9c1.7,1.8,2.6,4.1,2.7,6.5c0,2.4-0.9,4.8-2.7,6.5c-1.7,1.7-4.1,2.7-6.5,2.7c-1.2,0-2.4-0.2-3.5-0.7
	c-1.1-0.4-2.1-1.1-3-1.9c-1.7-1.7-2.7-4.1-2.7-6.5C144.4,299.3,145.4,297,147,295.2z M147,331.8L147,331.8c2.6-2.6,6.6-3.4,10-1.9
	c1.1,0.4,2.1,1.1,3,1.9c1.7,1.8,2.6,4.1,2.7,6.5c0,2.4-0.9,4.8-2.7,6.5c-1.7,1.7-4.1,2.7-6.5,2.7c-1.2,0-2.4-0.2-3.5-0.7
	c-1.1-0.4-2.1-1.1-3-1.9c-1.7-1.7-2.7-4.1-2.7-6.5C144.4,335.9,145.4,333.5,147,331.8z M147,368.3L147,368.3c2.6-2.6,6.6-3.4,10-1.9
	c1.1,0.4,2.1,1.1,3,1.9c1.7,1.8,2.6,4.1,2.7,6.5c0,2.4-0.9,4.8-2.7,6.5c-1.7,1.7-4.1,2.7-6.5,2.7c-1.2,0-2.4-0.2-3.5-0.7
	c-1.1-0.4-2.1-1.1-3-1.9c-1.7-1.7-2.7-4.1-2.7-6.5C144.4,372.4,145.4,370.1,147,368.3z M147,404.9L147,404.9c2.6-2.6,6.6-3.4,10-1.9
	c1.1,0.4,2.1,1.1,3,1.9c1.7,1.8,2.6,4.1,2.7,6.5c0,2.4-0.9,4.8-2.7,6.5c-1.7,1.7-4.1,2.7-6.5,2.7c-1.2,0-2.4-0.2-3.5-0.7
	c-1.1-0.4-2.1-1.1-3-1.9c-1.7-1.7-2.7-4.1-2.7-6.5C144.4,409,145.4,406.7,147,404.9z"/>
</svg>
